<?xml version="1.0" standalone="no"?>
<!DOCTYPE svg PUBLIC "-//W3C//DTD SVG 20010904//EN"
 "http://www.w3.org/TR/2001/REC-SVG-20010904/DTD/svg10.dtd">
<svg version="1.0" xmlns="http://www.w3.org/2000/svg"
 width="400.000000pt" height="400.000000pt" viewBox="0 0 400.000000 400.000000"
 preserveAspectRatio="xMidYMid meet">
<metadata>
Created by potrace 1.14, written by Peter Selinger 2001-2017
</metadata>
<g transform="translate(0.000000,400.000000) scale(0.100000,-0.100000)"
fill="#000000" stroke="none">
<path d="M220 3920 c-5 -128 -1 -564 6 -652 6 -76 6 -77 -18 -76 -67 4 -131
-3 -122 -12 6 -6 41 -10 80 -8 l69 3 0 235 c1 285 -10 637 -15 510z"/>
<path d="M1980 3991 c0 -5 -3 -18 -6 -28 -5 -16 -4 -16 10 1 18 23 20 36 6 36
-5 0 -10 -4 -10 -9z"/>
<path d="M2971 3913 c-24 -49 -56 -114 -72 -145 -16 -31 -29 -64 -29 -72 0 -8
-4 -16 -10 -18 -5 -1 -11 -14 -12 -28 -3 -25 -2 -25 72 -26 63 -1 65 0 15 3
-33 2 -63 7 -68 12 -4 4 33 87 81 184 49 97 84 177 77 177 -7 0 -31 -39 -54
-87z"/>
<path d="M3107 3980 c3 -11 13 -20 22 -19 10 0 11 2 4 6 -7 2 -13 11 -13 19 0
8 -4 14 -9 14 -5 0 -7 -9 -4 -20z"/>
<path d="M3260 3983 c0 -13 5 -23 10 -23 13 0 13 11 0 30 -8 12 -10 11 -10 -7z"/>
<path d="M3296 3985 c-3 -8 -1 -15 3 -15 5 0 11 7 15 15 3 8 1 15 -3 15 -5 0
-11 -7 -15 -15z"/>
<path d="M3410 3988 c0 -7 5 -20 10 -28 8 -12 10 -9 10 13 0 15 -4 27 -10 27
-5 0 -10 -6 -10 -12z"/>
<path d="M3450 3990 c0 -5 5 -10 10 -10 6 0 10 5 10 10 0 6 -4 10 -10 10 -5 0
-10 -4 -10 -10z"/>
<path d="M3560 3988 c0 -17 18 -44 24 -37 8 7 -5 49 -15 49 -5 0 -9 -6 -9 -12z"/>
<path d="M3605 3990 c3 -5 12 -7 20 -3 21 7 19 13 -6 13 -11 0 -18 -4 -14 -10z"/>
<path d="M3710 3988 c0 -7 5 -20 10 -28 8 -12 10 -9 10 13 0 15 -4 27 -10 27
-5 0 -10 -6 -10 -12z"/>
<path d="M3760 3991 c0 -5 9 -7 20 -4 11 3 20 7 20 9 0 2 -9 4 -20 4 -11 0
-20 -4 -20 -9z"/>
<path d="M3845 3990 c3 -5 12 -10 20 -10 8 0 17 5 20 10 4 6 -5 10 -20 10 -15
0 -24 -4 -20 -10z"/>
<path d="M3886 3936 c-19 -40 -29 -45 -76 -38 -32 5 -34 4 -21 -11 7 -9 17
-15 21 -12 4 3 7 -9 6 -26 -2 -38 -21 -50 -65 -42 -24 4 -32 2 -27 -6 4 -6 14
-11 22 -11 8 0 14 -4 14 -10 0 -5 -4 -10 -9 -10 -5 0 -7 -8 -4 -19 6 -24 -11
-34 -54 -33 -23 1 -33 -3 -30 -11 2 -6 11 -12 20 -12 8 0 19 -4 23 -8 4 -4 11
-7 15 -7 7 0 87 107 123 165 10 16 25 34 32 38 8 4 14 13 14 20 0 7 7 24 14
40 8 15 11 27 7 27 -5 0 -16 -15 -25 -34z"/>
<path d="M1890 3933 c-58 -8 -169 -37 -230 -61 -126 -49 -215 -109 -333 -225
-108 -106 -168 -184 -204 -265 -13 -32 -29 -65 -34 -75 -24 -44 -39 -184 -44
-392 -3 -121 -8 -221 -12 -221 -5 -1 -14 1 -20 3 -7 3 -21 2 -30 -1 -15 -6
-11 -13 25 -46 42 -39 48 -50 35 -64 -12 -12 -13 -40 -1 -73 9 -25 8 -36 -4
-55 -23 -35 -22 -176 1 -212 18 -27 18 -26 25 111 3 76 13 170 21 208 33 154
37 189 41 420 5 283 14 329 87 470 30 59 57 97 103 146 79 85 230 189 275 189
10 0 21 5 24 10 3 6 19 10 36 10 16 0 29 -4 29 -10 0 -5 6 -10 13 -10 8 0 22
-10 33 -22 10 -12 14 -18 7 -15 -7 4 -20 -5 -33 -23 -19 -26 -27 -30 -70 -30
-27 0 -52 -4 -55 -10 -3 -5 1 -10 11 -10 13 0 14 -3 4 -15 -7 -8 -18 -15 -25
-15 -8 0 -23 -12 -34 -26 -17 -21 -25 -24 -55 -19 -31 6 -40 3 -66 -23 -39
-40 -34 -85 14 -106 39 -17 232 -50 246 -41 5 3 10 1 10 -4 0 -6 7 -11 16 -11
12 0 14 3 6 13 -7 9 0 18 29 36 21 14 42 36 47 50 5 15 22 33 38 41 31 16 41
24 104 85 22 22 38 45 35 52 -2 7 0 13 5 13 5 0 7 7 4 15 -4 11 0 15 16 15 20
0 22 4 17 35 -4 23 -2 35 6 35 8 0 8 3 -1 9 -19 11 114 5 182 -9 31 -6 60 -9
65 -6 5 4 12 2 16 -4 3 -5 14 -10 24 -10 26 0 128 -56 181 -99 72 -58 166
-156 204 -213 39 -60 90 -179 106 -252 16 -71 21 -150 24 -351 2 -139 7 -200
23 -270 12 -49 27 -130 34 -180 9 -62 14 -82 19 -65 3 13 2 50 -3 82 -9 56 -3
128 11 128 4 0 9 -10 10 -22 8 -78 29 -179 37 -181 9 -2 25 79 41 216 8 66 0
71 -44 27 -35 -35 -52 -38 -52 -10 0 11 5 20 10 20 15 0 12 26 -5 40 -11 9
-14 37 -13 128 0 65 -5 145 -11 180 -7 34 -10 66 -7 70 10 16 -16 169 -40 242
-35 105 -153 269 -267 374 -49 45 -94 83 -100 85 -7 2 -30 18 -52 36 -45 35
-196 107 -265 125 -25 7 -54 16 -65 20 -22 10 -137 18 -175 13z m-163 -119
c-3 -3 -12 -4 -19 -1 -8 3 -5 6 6 6 11 1 17 -2 13 -5z m83 -25 c0 -24 -23 -21
-28 4 -2 10 3 17 12 17 10 0 16 -9 16 -21z"/>
<path d="M3662 3880 c0 -14 2 -19 5 -12 2 6 2 18 0 25 -3 6 -5 1 -5 -13z"/>
<path d="M3060 3881 c0 -17 12 -41 20 -41 4 0 10 11 12 25 4 19 1 25 -13 25
-11 0 -19 -4 -19 -9z"/>
<path d="M3210 3878 c0 -16 19 -47 21 -33 0 6 2 18 4 28 2 9 -3 17 -11 17 -8
0 -14 -6 -14 -12z"/>
<path d="M3364 3874 c3 -9 6 -18 6 -21 0 -2 7 2 15 11 20 20 19 26 -6 26 -15
0 -19 -4 -15 -16z"/>
<path d="M3511 3874 c0 -11 3 -14 6 -6 3 7 2 16 -1 19 -3 4 -6 -2 -5 -13z"/>
<path d="M3020 3780 c0 -11 4 -20 9 -20 5 0 11 9 14 20 3 13 0 20 -9 20 -8 0
-14 -9 -14 -20z"/>
<path d="M3170 3780 c0 -24 15 -27 24 -4 9 22 8 24 -9 24 -8 0 -15 -9 -15 -20z"/>
<path d="M3310 3790 c0 -5 9 -10 20 -10 11 0 20 5 20 10 0 6 -9 10 -20 10 -11
0 -20 -4 -20 -10z"/>
<path d="M3460 3783 c0 -10 4 -14 8 -8 4 6 11 13 16 18 5 4 2 7 -7 7 -10 0
-17 -8 -17 -17z"/>
<path d="M3600 3791 c0 -5 9 -7 20 -4 11 3 20 7 20 9 0 2 -9 4 -20 4 -11 0
-20 -4 -20 -9z"/>
<path d="M3543 3704 c-3 -8 -2 -19 3 -24 5 -5 10 1 10 16 2 27 -4 31 -13 8z"/>
<path d="M2975 3701 c-3 -5 -1 -12 5 -16 5 -3 10 1 10 9 0 18 -6 21 -15 7z"/>
<path d="M3120 3694 c0 -9 5 -14 12 -12 18 6 21 28 4 28 -9 0 -16 -7 -16 -16z"/>
<path d="M3262 3699 c2 -6 8 -10 13 -10 5 0 11 4 13 10 2 6 -4 11 -13 11 -9 0
-15 -5 -13 -11z"/>
<path d="M3400 3695 c0 -17 2 -18 24 -9 23 9 20 24 -4 24 -11 0 -20 -7 -20
-15z"/>
<path d="M68 3663 c12 -2 32 -2 45 0 12 2 2 4 -23 4 -25 0 -35 -2 -22 -4z"/>
<path d="M367 3543 c3 -71 10 -132 15 -138 6 -6 9 4 8 30 -5 71 0 83 14 43 7
-20 16 -52 20 -70 3 -18 24 -89 45 -158 22 -69 42 -140 46 -157 8 -41 23 -44
17 -3 -4 25 -1 30 24 35 47 11 51 13 19 15 -16 0 -38 7 -48 14 -15 12 -11 14
34 19 72 9 109 0 106 -26 -2 -19 3 -20 58 -18 33 2 62 4 66 6 14 9 64 -13 64
-28 0 -8 4 -19 9 -24 5 -4 6 7 2 27 -4 19 -18 112 -32 205 -14 94 -34 209 -45
257 -10 48 -19 90 -19 93 0 3 -92 5 -204 5 l-205 0 6 -127z m390 73 c8 -8 -85
-15 -207 -17 -160 -1 -173 1 -75 15 73 10 272 12 282 2z m-192 -57 c10 -15 5
-18 -57 -24 -55 -5 -76 3 -63 25 8 13 112 13 120 -1z m205 2 c0 -11 -51 -21
-111 -21 -46 0 -59 7 -42 23 10 10 153 8 153 -2z m-3 -55 c-2 -6 -31 -12 -65
-14 -46 -2 -62 -7 -62 -17 0 -8 -7 -15 -15 -15 -8 0 -15 7 -15 16 0 12 -9 15
-42 13 -44 -4 -67 17 -26 23 62 9 228 4 225 -6z m-278 -5 c11 -7 9 -10 -8 -16
-25 -8 -64 3 -56 16 8 11 46 12 64 0z m296 -46 c0 -5 -30 -11 -67 -13 -78 -3
-95 15 -20 21 66 5 87 3 87 -8z m-195 -9 c0 -13 -11 -16 -52 -16 -114 0 -133
24 -23 29 63 2 75 0 75 -13z m55 -29 c4 -9 27 -11 83 -9 56 3 74 1 66 -7 -6
-7 -73 -14 -168 -17 -129 -5 -157 -3 -154 8 5 15 6 15 94 17 40 1 63 5 59 11
-3 6 -1 10 5 10 6 0 13 -6 15 -13z m140 -56 l30 -7 -23 -12 c-27 -16 -124 -12
-129 5 -7 19 64 27 122 14z m-172 -16 c1 -6 -27 -11 -65 -13 -62 -3 -88 8 -55
22 21 9 117 2 120 -9z m187 -46 c-14 -4 -49 -7 -78 -8 -38 -1 -52 -5 -49 -13
3 -9 24 -12 75 -9 48 2 72 -1 72 -8 0 -6 -12 -11 -27 -11 -43 0 -103 -12 -103
-20 0 -4 32 -5 70 -2 60 4 70 2 70 -12 0 -14 -18 -16 -155 -16 -97 0 -155 4
-155 10 0 6 30 10 70 10 40 0 70 4 70 10 0 6 -31 10 -72 10 -84 0 -101 8 -96
41 3 24 4 24 158 29 155 5 197 2 150 -11z m40 -135 c0 -11 -18 -14 -70 -14
-38 0 -70 4 -70 9 0 15 21 20 83 19 41 -1 57 -5 57 -14z m-159 -17 c-10 -9
-11 -8 -5 6 3 10 9 15 12 12 3 -3 0 -11 -7 -18z"/>
<path d="M558 3283 c-33 -3 -48 -9 -48 -18 0 -10 8 -13 28 -10 15 3 47 7 71 8
25 2 47 9 49 15 4 12 -3 12 -100 5z"/>
<path d="M3691 3654 c0 -11 3 -14 6 -6 3 7 2 16 -1 19 -3 4 -6 -2 -5 -13z"/>
<path d="M3117 3623 c18 -2 50 -2 70 0 21 2 7 4 -32 4 -38 0 -55 -2 -38 -4z"/>
<path d="M3333 3623 c9 -2 25 -2 35 0 9 3 1 5 -18 5 -19 0 -27 -2 -17 -5z"/>
<path d="M3573 3623 c15 -2 39 -2 55 0 15 2 2 4 -28 4 -30 0 -43 -2 -27 -4z"/>
<path d="M1915 3600 c-3 -5 1 -10 10 -10 9 0 13 5 10 10 -3 6 -8 10 -10 10 -2
0 -7 -4 -10 -10z"/>
<path d="M140 3337 c0 -19 16 -31 24 -18 3 5 -1 14 -9 21 -12 10 -15 10 -15
-3z"/>
<path d="M170 3251 c0 -5 5 -13 10 -16 6 -3 10 -2 10 4 0 5 -4 13 -10 16 -5 3
-10 2 -10 -4z"/>
<path d="M8 3173 c7 -3 16 -2 19 1 4 3 -2 6 -13 5 -11 0 -14 -3 -6 -6z"/>
<path d="M612 3103 c-69 -4 -77 -23 -9 -23 51 0 87 9 87 21 0 5 -3 8 -7 7 -5
-1 -36 -3 -71 -5z"/>
<path d="M725 3100 c-4 -6 15 -10 49 -10 30 0 58 5 61 10 4 6 -15 10 -49 10
-30 0 -58 -4 -61 -10z"/>
<path d="M1385 2970 c-27 -16 -66 -50 -86 -76 -36 -46 -36 -47 -24 -95 7 -26
10 -50 7 -53 -3 -3 6 -6 21 -6 14 0 29 5 32 10 8 13 35 13 35 1 0 -5 -20 -22
-43 -38 -41 -26 -67 -61 -67 -90 0 -16 26 -29 78 -38 32 -5 42 -11 42 -26 0
-36 74 -51 147 -30 22 6 35 6 39 -1 8 -12 -16 -29 -29 -21 -4 3 -19 2 -33 -1
-19 -5 -25 -12 -22 -29 3 -19 11 -23 73 -30 67 -7 71 -6 111 23 24 17 55 30
72 30 31 0 91 36 132 79 21 22 24 34 22 84 -1 31 4 86 12 122 12 57 12 68 -4
102 -28 62 -36 65 -193 71 -97 3 -147 9 -157 18 -8 7 -38 15 -65 18 -43 5 -57
2 -100 -24z m273 -292 c18 -18 15 -28 -8 -28 -13 0 -20 7 -20 20 0 23 10 26
28 8z m-188 -12 c0 -2 3 -11 6 -20 4 -11 0 -16 -12 -16 -27 0 -48 16 -40 29 7
10 46 16 46 7z m280 -61 c-7 -8 -24 -15 -38 -15 -31 0 -18 16 18 23 14 2 27 5
29 6 2 0 -2 -6 -9 -14z"/>
<path d="M2419 2976 c-3 -3 -66 -6 -142 -7 -152 -2 -165 -7 -202 -79 -17 -32
-17 -39 3 -142 7 -37 6 -45 -5 -41 -19 7 -16 -17 5 -52 23 -36 103 -115 117
-115 16 0 108 -50 131 -72 17 -15 29 -17 65 -12 39 7 126 46 139 64 3 3 13 9
23 13 15 6 16 10 7 28 -17 32 2 44 64 41 58 -2 76 8 51 28 -8 7 -15 23 -15 35
0 27 -40 64 -104 94 -40 20 -75 27 -145 30 -34 1 -14 20 24 22 68 5 154 -2
167 -13 14 -14 55 -38 62 -38 2 0 -1 16 -7 36 -9 31 -8 37 6 45 37 21 11 54
-84 107 -42 24 -69 32 -106 32 -27 0 -52 -2 -54 -4z m201 -289 c16 -12 29 -25
29 -29 2 -17 -21 -6 -57 28 -40 39 -20 40 28 1z m-280 -22 c0 -8 -4 -15 -9
-15 -13 0 -22 16 -14 24 11 11 23 6 23 -9z m190 -15 c0 -10 -31 -22 -38 -16
-2 3 -2 12 1 20 6 15 37 12 37 -4z"/>
<path d="M393 2660 c0 -25 2 -35 4 -22 2 12 2 32 0 45 -2 12 -4 2 -4 -23z"/>
<path d="M930 2633 c0 -16 5 -80 11 -143 6 -63 12 -126 13 -140 2 -14 8 -35
14 -47 7 -12 12 -34 12 -50 0 -43 11 -73 26 -73 17 0 19 41 3 57 -22 22 -38
132 -28 197 6 33 14 86 18 116 7 45 6 59 -8 75 -36 44 -61 47 -61 8z"/>
<path d="M1240 2540 c0 -5 5 -10 10 -10 6 0 10 5 10 10 0 6 -4 10 -10 10 -5 0
-10 -4 -10 -10z"/>
<path d="M1664 2357 c-88 -98 -104 -117 -104 -126 0 -17 -33 -29 -62 -24 -23
4 -29 1 -37 -20 -12 -31 -29 -37 -86 -30 -29 3 -45 1 -45 -6 0 -6 -10 -11 -23
-11 -13 0 -27 -4 -33 -9 -5 -6 -27 -14 -49 -20 -69 -17 -118 -38 -106 -45 6
-4 11 -14 11 -22 0 -8 -4 -12 -10 -9 -6 3 -7 -1 -4 -9 4 -10 -1 -18 -12 -23
-10 -4 -19 -2 -22 5 -2 7 -16 12 -30 12 -26 0 -26 0 -6 -14 11 -8 30 -16 43
-18 25 -3 31 -22 32 -91 0 -64 51 -212 113 -328 27 -51 46 -101 47 -120 0 -19
3 -28 6 -21 2 6 9 10 14 6 14 -8 11 -24 -5 -24 -18 0 -27 -23 -15 -41 5 -8 9
-59 9 -114 0 -119 -7 -133 -87 -172 -30 -15 -66 -42 -80 -60 -14 -17 -41 -37
-61 -44 -55 -18 -183 -87 -214 -114 -14 -14 -29 -25 -33 -25 -4 0 -33 -15 -64
-34 -31 -19 -87 -51 -126 -71 -38 -21 -97 -56 -130 -79 -68 -46 -81 -55 -145
-92 -25 -15 -67 -41 -95 -59 -43 -28 -94 -59 -163 -100 -10 -5 -34 -20 -55
-33 l-37 -24 0 -174 0 -174 2000 0 2000 0 0 305 0 305 -27 6 c-50 13 -163 75
-163 89 0 8 -4 15 -9 15 -5 0 -40 19 -77 41 -81 49 -193 101 -208 96 -6 -2 3
-12 19 -22 17 -10 41 -25 55 -35 14 -9 42 -25 63 -35 46 -22 47 -35 3 -35 -39
0 -57 -17 -50 -47 8 -28 -12 -38 -26 -13 -6 11 -20 20 -30 20 -11 0 -20 6 -20
13 0 19 -84 106 -121 126 -18 10 -44 35 -57 56 -13 20 -18 34 -10 30 7 -3 2 3
-12 15 -13 12 -26 17 -28 11 -3 -10 -9 -8 -64 21 -69 36 -123 60 -151 65 l-32
6 30 -26 c17 -14 25 -27 20 -27 -6 0 -25 14 -43 30 -18 17 -39 30 -45 30 -7 0
-21 7 -31 15 -21 16 -81 21 -72 6 3 -4 -3 -16 -13 -25 -18 -16 -21 -14 -72 45
-103 118 -114 128 -146 134 -40 8 -43 -6 -10 -38 53 -49 58 -67 56 -190 0 -69
-7 -132 -15 -154 -7 -21 -14 -33 -15 -28 0 6 -4 -1 -8 -15 -4 -16 -14 -25 -26
-25 -13 0 -19 -6 -17 -15 13 -53 -10 -140 -36 -140 -7 0 -20 -9 -29 -20 -16
-18 -43 -28 -43 -15 0 3 7 22 17 43 9 20 15 42 14 47 -2 6 -7 65 -12 132 -4
68 -13 131 -18 141 -15 28 -2 224 20 316 19 80 41 126 59 126 6 0 10 8 10 19
0 10 17 51 38 92 63 125 101 232 128 359 33 158 33 161 13 179 -11 8 -19 20
-19 26 0 19 -54 43 -83 38 -18 -4 -34 0 -45 10 -10 9 -46 19 -85 23 -38 4 -74
12 -80 18 -7 7 -37 31 -68 54 -32 22 -74 63 -95 89 -87 108 -120 102 -77 -15
15 -40 15 -44 0 -59 -14 -15 -21 -15 -57 -3 -32 11 -56 11 -112 2 -46 -7 -78
-7 -90 -1 -19 10 -21 10 -180 9 -97 -1 -108 1 -117 19 -15 27 -7 43 45 86 l44
37 -24 19 c-36 29 -60 23 -102 -24z m657 -225 c15 -15 34 -42 43 -60 9 -18 28
-38 41 -44 27 -12 23 -34 -4 -22 -9 4 -26 6 -38 6 -12 -1 -25 3 -28 8 -3 6
-15 10 -26 10 -10 0 -19 4 -19 9 0 5 -16 19 -36 31 -41 26 -43 57 -4 77 35 18
41 16 71 -15z m-398 -177 c42 -13 53 -13 91 0 55 19 93 12 181 -32 76 -38 95
-51 95 -64 0 -16 -21 -9 -65 21 -70 48 -122 61 -224 56 -68 -4 -98 -1 -121 10
-54 28 -33 32 43 9z m613 -32 c24 -23 34 -41 31 -54 -3 -10 4 -42 14 -70 18
-47 19 -53 4 -75 -19 -29 -23 -30 -52 -2 -15 14 -23 33 -23 55 0 23 -8 41 -23
56 -18 16 -25 37 -30 78 -5 55 -5 56 19 51 14 -2 41 -20 60 -39z m-776 7 c0
-5 -5 -10 -11 -10 -5 0 -7 5 -4 10 3 6 8 10 11 10 2 0 4 -4 4 -10z m-56 -35
c-6 -16 -24 -21 -24 -7 0 11 11 22 21 22 5 0 6 -7 3 -15z m161 -56 c6 1 29 4
53 7 26 4 48 2 57 -6 8 -7 20 -8 27 -4 20 13 71 13 93 1 11 -6 26 -10 33 -9 7
2 25 -6 41 -18 16 -11 34 -20 40 -20 6 0 11 -6 11 -12 0 -9 -18 -14 -51 -15
-28 -1 -56 -6 -63 -12 -6 -5 -72 -7 -151 -4 -198 7 -199 7 -212 16 -16 10 -1
52 18 52 8 0 25 8 39 18 14 9 32 14 40 11 8 -4 20 -6 25 -5z m230 -128 l40 -8
-30 -13 c-56 -25 -282 -9 -301 21 -6 11 235 11 291 0z m-70 -66 c33 -4 81 -2
107 4 61 14 139 -3 130 -28 -18 -47 -75 -63 -130 -35 -24 12 -39 13 -69 5 -50
-13 -156 -11 -165 3 -4 6 -8 24 -8 39 0 27 2 29 38 23 20 -3 64 -8 97 -11z
m-700 -295 c-4 -12 -9 -19 -12 -17 -3 3 -2 15 2 27 4 12 9 19 12 17 3 -3 2
-15 -2 -27z m15 -130 c0 -11 -4 -20 -10 -20 -5 0 -10 9 -10 20 0 11 5 20 10
20 6 0 10 -9 10 -20z m-18 -153 c-2 -52 -7 -66 -28 -85 -19 -16 -29 -20 -39
-12 -6 5 -24 11 -39 12 -27 2 -30 8 -20 46 4 13 14 22 25 22 11 0 19 7 19 16
0 8 4 13 9 10 5 -3 22 9 37 28 16 19 31 32 34 29 3 -2 4 -32 2 -66z m1695 -95
c17 -11 146 -279 141 -294 -6 -17 -54 59 -62 99 -4 17 -17 38 -30 46 -14 9
-30 38 -40 71 -10 31 -22 58 -27 62 -11 6 -12 24 -1 24 4 0 12 -4 19 -8z m118
-70 c-7 -7 -55 39 -55 52 0 5 13 -3 30 -19 16 -16 28 -31 25 -33z m-2350 -112
c-10 -11 -23 -20 -28 -20 -6 0 -2 9 8 20 10 11 23 20 28 20 6 0 2 -9 -8 -20z
m55 0 c0 -5 -4 -10 -10 -10 -5 0 -10 5 -10 10 0 6 5 10 10 10 6 0 10 -4 10
-10z m-19 -66 c-9 -28 -9 -29 -10 -3 -1 14 2 29 6 32 11 12 13 2 4 -29z m2965
-21 c-8 -8 -36 5 -36 17 0 7 6 7 21 0 11 -7 18 -14 15 -17z m-133 -116 c9 -30
17 -62 17 -72 0 -17 -1 -17 -19 -1 -20 19 -34 57 -33 94 1 51 15 43 35 -21z"/>
<path d="M3256 2318 c-24 -35 -19 -41 14 -16 17 12 30 25 30 30 0 17 -29 7
-44 -14z"/>
<path d="M3155 2250 c-17 -7 -16 -9 10 -9 17 0 37 4 45 9 12 8 10 10 -10 9
-14 0 -34 -4 -45 -9z"/>
<path d="M3100 2231 c0 -10 13 -62 30 -115 50 -164 73 -337 68 -511 l-5 -150
14 70 c23 111 11 320 -26 475 -16 69 -39 150 -50 182 -10 31 -17 59 -14 62 4
3 1 6 -5 6 -7 0 -12 -8 -12 -19z"/>
<path d="M761 2165 c-1 -31 14 -64 23 -54 4 3 0 23 -8 45 -14 38 -15 38 -15 9z"/>
<path d="M786 2091 c-5 -7 -3 -18 3 -24 14 -14 20 -6 11 17 -5 15 -9 16 -14 7z"/>
<path d="M404 1655 c0 -55 1 -76 3 -47 2 29 2 74 0 100 -2 26 -3 2 -3 -53z"/>
<path d="M995 1720 c3 -5 8 -10 11 -10 2 0 4 5 4 10 0 6 -5 10 -11 10 -5 0 -7
-4 -4 -10z"/>
<path d="M1020 1678 c0 -9 5 -20 11 -23 17 -11 20 0 4 21 -13 17 -14 17 -15 2z"/>
<path d="M550 1665 c-6 -8 -10 -19 -8 -24 1 -5 11 2 21 15 19 26 8 34 -13 9z"/>
<path d="M910 1613 c0 -12 -6 -23 -12 -26 -30 -10 2 -14 75 -10 42 3 77 10 77
16 0 6 -19 7 -52 3 -47 -7 -54 -5 -70 16 l-18 23 0 -22z"/>
<path d="M1068 1593 c7 -3 16 -2 19 1 4 3 -2 6 -13 5 -11 0 -14 -3 -6 -6z"/>
<path d="M987 1554 c-4 -4 -24 -8 -44 -9 -35 -1 -38 -3 -38 -30 0 -38 25 -46
26 -8 0 24 2 26 12 11 10 -15 12 -15 25 0 12 15 13 14 7 -11 -6 -28 -6 -28 42
-25 48 3 48 3 48 38 0 33 -2 35 -35 38 -20 2 -39 0 -43 -4z m63 -35 c0 -5 -9
-9 -20 -9 -22 0 -27 16 -7 23 15 5 27 -1 27 -14z"/>
<path d="M497 1408 c7 -41 10 -45 25 -30 9 9 9 18 0 37 -17 36 -33 31 -25 -7z"/>
<path d="M3426 875 c-10 -26 -7 -32 15 -38 12 -3 18 -10 14 -16 -3 -6 -2 -11
4 -11 14 0 23 18 11 22 -5 1 -11 14 -13 27 -5 30 -22 38 -31 16z"/>
</g>
</svg>
